<svg width="171" height="48" viewBox="0 0 171 48" fill="none" xmlns="http://www.w3.org/2000/svg">
<g clip-path="url(#clip0_701_10407)">
<path d="M55.8298 3.58594H57.757V13.0506H55.8298V3.58594Z" fill="#004D98"/>
<path d="M59.7034 8.31794C59.7034 5.41862 61.5663 3.45996 64.3253 3.45996C67.0844 3.45996 68.9698 5.37674 68.9698 8.31794C68.9698 11.2173 67.0812 13.1759 64.3253 13.1759C61.5695 13.1759 59.7034 11.2559 59.7034 8.31794ZM67.0073 8.31794C67.0073 6.38506 65.9377 5.12868 64.3253 5.12868C62.7129 5.12868 61.6434 6.37539 61.6434 8.31794C61.6434 10.2605 62.7097 11.5072 64.3253 11.5072C65.9409 11.5072 67.0073 10.2605 67.0073 8.31794Z" fill="#004D98"/>
<path d="M79.9224 11.3078V15.0447H78.0851V13.0506H70.9065V3.58594H72.8176V11.3175H76.8935V3.58594H78.8207V11.3175L79.9224 11.3078Z" fill="#004D98"/>
<path d="M66.7857 27.7047H64.9228V20.669L62.3115 27.7047H60.3234L57.6896 20.5821V27.7047H55.8267V18.2529H58.6821L61.3158 25.4271L63.9753 18.2529H66.7825L66.7857 27.7047Z" fill="#004D98"/>
<path d="M69.2429 17.6533H71.1701V19.2641H69.2429V17.6533ZM69.3168 20.2305H71.1058V27.7043H69.3168V20.2305Z" fill="#004D98"/>
<path d="M80.1955 20.2441V27.7051H78.4064V24.7155H75.1784V27.7051H73.3894V20.2441H75.1784V23.0855H78.4064V20.2441H80.1955Z" fill="#004D98"/>
<path d="M81.811 23.981C81.811 21.6648 83.3496 20.1152 85.6107 20.1152C87.2745 20.1152 88.5914 20.9367 89.0122 22.3703L87.3002 22.8728C87.197 22.4994 86.9719 22.1714 86.661 21.9414C86.3501 21.7113 85.9713 21.5923 85.585 21.6036C84.3934 21.6036 83.6579 22.5249 83.6579 23.9681C83.6579 25.4113 84.4031 26.3359 85.585 26.3359C85.9757 26.3427 86.3576 26.2201 86.6717 25.9871C86.9859 25.7542 87.2147 25.4239 87.3227 25.0473L89.0122 25.5724C88.5914 26.9931 87.2745 27.8274 85.6107 27.8274C83.3496 27.8435 81.811 26.2972 81.811 23.981Z" fill="#004D98"/>
<path d="M89.7573 23.981C89.7573 21.6648 91.3215 20.1152 93.6116 20.1152C95.9017 20.1152 97.4659 21.6325 97.4659 23.981C97.4659 26.3295 95.9017 27.8468 93.6116 27.8468C91.2734 27.8435 89.7573 26.323 89.7573 23.981ZM95.6191 23.981C95.6191 22.512 94.8482 21.6164 93.6084 21.6164C92.3686 21.6164 91.5945 22.512 91.5945 23.981C91.5945 25.45 92.3654 26.3488 93.6084 26.3488C94.8514 26.3488 95.6191 25.45 95.6191 23.981Z" fill="#004D98"/>
<path d="M106.797 26.0943V29.4576H105.082V27.7051H99.072V20.2441H100.855V26.0943H104.009V20.2441H105.798V26.0943H106.797Z" fill="#004D98"/>
<path d="M115.093 27.7051H113.304V21.8645H110.076V27.7051H108.287V20.2441H115.093V27.7051Z" fill="#004D98"/>
<path d="M116.705 23.981C116.705 21.6648 118.27 20.1152 120.56 20.1152C122.895 20.1152 124.414 21.6325 124.414 23.981C124.414 26.3295 122.85 27.8468 120.56 27.8468C118.221 27.8435 116.705 26.323 116.705 23.981ZM122.567 23.981C122.567 22.512 121.796 21.6164 120.556 21.6164C119.317 21.6164 118.543 22.512 118.543 23.981C118.543 25.45 119.313 26.3488 120.556 26.3488C121.799 26.3488 122.567 25.45 122.567 23.981Z" fill="#004D98"/>
<path d="M132.454 27.7051H130.665V21.8645H127.983V24.2549C127.983 26.9223 127.385 27.7695 125.795 27.7695C125.539 27.7677 125.282 27.7505 125.028 27.718V26.1072H125.448C126.046 26.1072 126.219 25.8817 126.219 24.0616V20.2441H132.454V27.7051Z" fill="#004D98"/>
<path d="M134.663 17.6533H136.59V19.2641H134.663V17.6533ZM134.737 20.2305H136.526V27.7043H134.737V20.2305Z" fill="#004D98"/>
<path d="M145.022 21.8646H142.414V27.7052H140.625V21.8646H137.991V20.2539H145.022V21.8646Z" fill="#004D98"/>
<path d="M153.167 20.2441V27.7051H151.43V22.7859L148.124 27.7051H146.335V20.2441H148.099V25.1762L151.378 20.2441H153.167Z" fill="#004D98"/>
<path d="M158.133 24.4288L157.115 25.3953V27.7051H155.326V20.2441H157.115V23.3851L160.169 20.2441H162.418L159.376 23.195L162.524 27.7051H160.388L158.133 24.4288Z" fill="#004D98"/>
<path d="M170.502 20.2441V27.7051H168.764V22.7859L165.459 27.7051H163.673V20.2441H165.437V25.1762L168.713 20.2441H170.502Z" fill="#004D98"/>
<path d="M63.7793 32.9199L60.8468 40.194C60.3008 41.5631 59.5621 42.5102 58.091 42.5102C56.7259 42.5102 55.8427 41.5438 55.8073 40.2552L57.3201 39.8815C57.3458 40.6031 57.6413 40.98 58.1649 40.98C58.3146 40.9872 58.4637 40.9564 58.5984 40.8905C58.7331 40.8246 58.8491 40.7258 58.9357 40.6031L54.6382 32.9328H56.7741L59.7066 38.6864L61.7911 32.9328L63.7793 32.9199Z" fill="#004D98"/>
<path d="M67.1808 39.0993L66.1626 40.0658V42.382H64.3735V34.9082H66.1658V38.0491L69.2203 34.9082H71.4687L68.4141 37.8526L71.5683 42.3852H69.442L67.1808 39.0993Z" fill="#004D98"/>
<path d="M80.0958 38.6574C80.0958 40.9769 78.7789 42.5232 76.8839 42.5232C76.4308 42.5393 75.9801 42.451 75.5663 42.265C75.1526 42.079 74.7869 41.8003 74.4974 41.4504V44.891H72.718V34.9108H74.324L74.4235 36.0319C74.704 35.6396 75.0754 35.3217 75.5057 35.1056C75.9361 34.8895 76.4124 34.7818 76.8935 34.7916C78.8303 34.7916 80.0958 36.3057 80.0958 38.6574ZM78.2843 38.6574C78.2843 37.2142 77.5391 36.2928 76.3571 36.2928C75.1751 36.2928 74.446 37.2142 74.446 38.6574C74.446 40.1006 75.1655 41.0252 76.3571 41.0252C77.5488 41.0252 78.2843 40.0942 78.2843 38.6574Z" fill="#004D98"/>
<path d="M88.1674 40.8419V42.385C87.9556 42.4239 87.7403 42.4412 87.525 42.4365C86.6064 42.4365 86.1343 42.0854 86.009 41.2897C85.6989 41.6826 85.3017 41.9976 84.8489 42.2095C84.3962 42.4215 83.9004 42.5246 83.4009 42.5106C81.962 42.5106 80.9695 41.6376 80.9695 40.3168C80.9695 38.4258 82.7553 38.0617 84.1814 37.8781C85.145 37.7525 85.7713 37.6268 85.7713 37.1307C85.7713 36.6346 85.2253 36.2577 84.3324 36.2577C83.9364 36.2606 83.545 36.3436 83.1819 36.502C82.8187 36.6603 82.4911 36.8906 82.2189 37.1791L81.1526 36.058C82.0335 35.2223 83.2068 34.7675 84.4191 34.7919C86.3045 34.7919 87.4222 35.7358 87.4222 37.2821V40.3973C87.4137 40.4581 87.4193 40.5201 87.4387 40.5783C87.4581 40.6366 87.4908 40.6895 87.5341 40.7329C87.5774 40.7764 87.6301 40.8091 87.6882 40.8286C87.7463 40.848 87.8081 40.8537 87.8687 40.8451L88.1674 40.8419ZM85.7103 39.4953V38.7254C85.2854 38.9162 84.8315 39.0338 84.3677 39.0733C83.523 39.2215 82.7039 39.3471 82.7039 40.1686C82.7039 40.742 83.1022 41.0899 83.7703 41.0899C84.8399 41.0899 85.7103 40.3683 85.7103 39.4953Z" fill="#004D98"/>
<path d="M88.4148 32.3213H90.2777V33.932H88.4148V32.3213ZM89.8313 34.8985H91.6203V42.3723H89.8313V34.8985ZM91.1738 32.3213H93.0368V33.932H91.1738V32.3213Z" fill="#004D98"/>
<path d="M100.71 34.9111V42.385H98.9275V39.3954H95.6931V42.385H93.9041V34.9111H95.6931V37.7525H98.9275V34.9111H100.71Z" fill="#004D98"/>
<path d="M109.678 34.9111V42.385H107.937V37.4529L104.635 42.385H102.846V34.9111H104.609V39.8432L107.889 34.9111H109.678Z" fill="#004D98"/>
<path d="M41.0004 23.4715L27.3497 37.1628C27.0325 37.4799 26.6028 37.658 26.1549 37.658C25.707 37.658 25.2773 37.4799 24.9601 37.1628L11.1713 23.333L9.92505 24.5829L26.1549 40.861L41.7359 25.2337C41.8654 25.1101 41.9441 24.9424 41.9565 24.7636C41.969 24.5848 41.9144 24.4077 41.8034 24.2672L41.0004 23.4715Z" fill="url(#paint0_linear_701_10407)"/>
<path d="M44.8545 24.4573C44.8545 24.4573 44.8963 22.5792 44.8802 22.2022C44.8506 21.719 44.6501 21.2621 44.3149 20.9137L24.0798 0.618375C23.8856 0.422983 23.6548 0.267957 23.4007 0.162179C23.1466 0.056402 22.8742 0.00195313 22.5991 0.00195312C22.324 0.00195312 22.0516 0.056402 21.7975 0.162179C21.5434 0.267957 21.3126 0.422983 21.1184 0.618375L1.01175 20.7848L0.793342 21.0071C0.483826 21.3296 0.291498 21.7471 0.247314 22.1926V24.657L0.767646 23.5166L21.1505 3.0828C21.5341 2.6988 22.0539 2.48314 22.5959 2.48314C23.1378 2.48314 23.6577 2.6988 24.0413 3.0828L44.3246 23.4328C44.5519 23.7455 44.7306 24.0909 44.8545 24.4573Z" fill="url(#paint1_linear_701_10407)"/>
<path d="M35.1642 24.6247L33.9179 23.3715L27.3496 30.0206C27.0323 30.3378 26.6026 30.5158 26.1547 30.5158C25.7068 30.5158 25.2771 30.3378 24.9599 30.0206L18.1442 23.1943L16.8979 24.4443L26.1515 33.7253L35.1642 24.6247Z" fill="url(#paint2_linear_701_10407)"/>
<path d="M4.17563 23.459L2.93262 24.7057L24.0028 45.8289L24.1634 46.1833L24.1185 43.6802C24.1094 43.5278 24.0441 43.3843 23.9354 43.2775L4.17563 23.459Z" fill="url(#paint3_linear_701_10407)"/>
<path d="M26.7425 23.4844L24.8378 25.4173C24.7795 25.4747 24.7334 25.5434 24.7025 25.6193C24.6716 25.6952 24.6564 25.7766 24.6579 25.8586L24.5969 28.3198L24.7929 27.9493L28.0048 24.7279L26.7425 23.4844Z" fill="url(#paint4_linear_701_10407)"/>
<path d="M37.7562 24.5698V22.3148C37.7598 21.7835 37.5677 21.2695 37.2166 20.8716L24.0477 7.66356C23.6616 7.27681 23.1383 7.05957 22.5927 7.05957C22.047 7.05957 21.5237 7.27681 21.1377 7.66356L7.88207 20.9715C7.57271 21.3418 7.39227 21.8033 7.36816 22.2858L7.38744 24.4829L7.44204 24.2413C7.53165 23.9427 7.69263 23.6707 7.91098 23.4488L21.1987 10.1151C21.3825 9.93042 21.6008 9.78391 21.8411 9.68394C22.0814 9.58397 22.339 9.53252 22.5991 9.53252C22.8593 9.53252 23.1169 9.58397 23.3572 9.68394C23.5975 9.78391 23.8157 9.93042 23.9995 10.1151L37.1363 23.2909C37.4689 23.6433 37.6853 24.0898 37.7562 24.5698Z" fill="url(#paint5_linear_701_10407)"/>
<path d="M30.1439 20.9393L24.0894 14.841C23.6969 14.4482 23.1649 14.2275 22.6104 14.2275C22.0558 14.2275 21.5239 14.4482 21.1313 14.841L14.8487 21.1261C14.6969 21.2984 14.5812 21.4996 14.5084 21.7176C14.4355 21.9356 14.4071 22.1661 14.4248 22.3954V24.834C14.4949 24.2997 14.7181 23.7973 15.0672 23.3876L21.1152 17.3441C21.3092 17.1488 21.5397 16.9938 21.7935 16.8881C22.0473 16.7824 22.3195 16.728 22.5943 16.728C22.8691 16.728 23.1413 16.7824 23.3951 16.8881C23.6489 16.9938 23.8794 17.1488 24.0734 17.3441L29.6878 22.9752C30.14 23.3973 30.464 23.9389 30.6225 24.5376V22.1956C30.624 21.7318 30.4534 21.284 30.1439 20.9393Z" fill="url(#paint6_linear_701_10407)"/>
<path d="M41.8033 24.2738L41.0003 23.4717L27.3497 37.1629C27.1754 37.3383 26.9648 37.4731 26.7327 37.5577C26.5007 37.6424 26.253 37.6747 26.0071 37.6526V40.7098L26.1548 40.8612L41.7359 25.2338C41.8635 25.1105 41.9411 24.9441 41.9536 24.7668C41.966 24.5895 41.9125 24.4139 41.8033 24.2738Z" fill="url(#paint7_linear_701_10407)"/>
<path d="M33.9181 23.3721L27.3497 30.0212C27.1749 30.1959 26.9642 30.3302 26.7323 30.4147C26.5004 30.4993 26.2529 30.5321 26.0071 30.5109V33.568L26.1516 33.713L35.145 24.6188L33.9181 23.3721Z" fill="url(#paint8_linear_701_10407)"/>
<path d="M21.7833 14.3906C21.5336 14.4962 21.3067 14.6494 21.1152 14.8416L14.8487 21.1267C14.6969 21.299 14.5812 21.5002 14.5084 21.7182C14.4355 21.9362 14.4071 22.1667 14.4248 22.396V24.8346C14.4949 24.3003 14.7181 23.7979 15.0672 23.3882L21.1152 17.3447C21.3057 17.1504 21.5328 16.9961 21.7833 16.8905V14.3906Z" fill="url(#paint9_linear_701_10407)"/>
<path d="M21.7833 7.23242C21.5435 7.33509 21.3255 7.48269 21.1409 7.66732L7.88207 20.972C7.57271 21.3423 7.39227 21.8038 7.36816 22.2864L7.38744 24.4834L7.44204 24.2418C7.53165 23.9433 7.69263 23.6712 7.91098 23.4493L21.1987 10.1156C21.3668 9.94515 21.565 9.8075 21.7833 9.70973V7.23242Z" fill="url(#paint10_linear_701_10407)"/>
<path d="M21.7833 0.164062C21.534 0.270412 21.3073 0.423484 21.1152 0.615068L1.00858 20.7815L0.790167 21.0038C0.480651 21.3263 0.288324 21.7438 0.244141 22.1893V24.6537L0.767684 23.5165L21.1506 3.08272C21.3334 2.89677 21.5519 2.74993 21.7929 2.65104L21.7833 0.164062Z" fill="url(#paint11_linear_701_10407)"/>
<path d="M21.1443 7.66697L20.094 8.72361V11.2235L21.1989 10.1153C21.416 9.89686 21.6808 9.73218 21.9724 9.63432C22.264 9.53647 22.5743 9.50812 22.8787 9.55153V7.0871C22.5646 7.04325 22.2447 7.07277 21.9438 7.17335C21.643 7.27393 21.3693 7.44286 21.1443 7.66697Z" fill="url(#paint12_linear_701_10407)"/>
<path d="M21.1154 0.615366L20.094 1.63979V4.14288L21.1507 3.08301C21.3742 2.85845 21.6466 2.68892 21.9464 2.58775C22.2462 2.48658 22.5654 2.45651 22.8787 2.49993V0.0193932C22.5589 -0.0245383 22.2332 0.00640695 21.9273 0.109804C21.6214 0.2132 21.3435 0.38624 21.1154 0.615366Z" fill="url(#paint13_linear_701_10407)"/>
<path d="M44.2636 26.216L27.4235 43.103C27.0869 43.4401 26.6306 43.6295 26.1548 43.6295C25.6791 43.6295 25.2227 43.4401 24.8861 43.103L7.93356 26.0936C7.7539 25.914 7.61135 25.7006 7.51408 25.4657C7.41681 25.2308 7.36674 24.9789 7.36674 24.7245C7.36674 24.4701 7.41681 24.2182 7.51408 23.9832C7.61135 23.7483 7.7539 23.5349 7.93356 23.3553L21.1024 10.1473C21.495 9.75445 22.027 9.53383 22.5815 9.53383C23.1361 9.53383 23.668 9.75445 24.0606 10.1473L37.1267 23.2555C37.3215 23.45 37.476 23.6812 37.5814 23.9358C37.6868 24.1904 37.7411 24.4633 37.7411 24.739C37.7411 25.0146 37.6868 25.2876 37.5814 25.5421C37.476 25.7967 37.3215 26.0279 37.1267 26.2225L27.3914 35.9867C27.2273 36.1513 27.0326 36.2819 26.8182 36.371C26.6038 36.4601 26.374 36.506 26.142 36.506C25.9099 36.506 25.6801 36.4601 25.4657 36.371C25.2514 36.2819 25.0566 36.1513 24.8925 35.9867L14.9356 26.0002C14.7683 25.8334 14.6356 25.6351 14.5451 25.4168C14.4545 25.1984 14.4079 24.9642 14.4079 24.7277C14.4079 24.4912 14.4545 24.257 14.5451 24.0386C14.6356 23.8202 14.7683 23.622 14.9356 23.4552L21.1153 17.2861C21.3093 17.0908 21.5398 16.9358 21.7936 16.8301C22.0474 16.7244 22.3195 16.6699 22.5944 16.6699C22.8692 16.6699 23.1414 16.7244 23.3952 16.8301C23.649 16.9358 23.8795 17.0908 24.0735 17.2861L30.0188 23.249C30.4104 23.6428 30.6304 24.1763 30.6304 24.7325C30.6304 25.2887 30.4104 25.8222 30.0188 26.216L26.5306 29.7113C26.4814 29.761 26.4228 29.8004 26.3583 29.8273C26.2938 29.8542 26.2247 29.868 26.1548 29.868C26.085 29.868 26.0158 29.8542 25.9513 29.8273C25.8868 29.8004 25.8283 29.761 25.779 29.7113L24.7512 28.6804C24.7017 28.631 24.6624 28.5723 24.6355 28.5076C24.6087 28.4429 24.5949 28.3736 24.5949 28.3035C24.5949 28.2335 24.6087 28.1641 24.6355 28.0994C24.6624 28.0347 24.7017 27.976 24.7512 27.9266L27.0477 25.62C27.1646 25.5036 27.2574 25.365 27.3208 25.2124C27.3841 25.0598 27.4167 24.8962 27.4167 24.7309C27.4167 24.5656 27.3841 24.402 27.3208 24.2494C27.2574 24.0968 27.1646 23.9583 27.0477 23.8418L23.4825 20.2627C23.2465 20.0273 22.9272 19.8951 22.5944 19.8951C22.2615 19.8951 21.9422 20.0273 21.7063 20.2627L18.1443 23.8386C17.9083 24.0759 17.7758 24.3974 17.7758 24.7325C17.7758 25.0677 17.9083 25.3892 18.1443 25.6265L25.0531 32.5688C25.3421 32.8579 25.7337 33.0203 26.142 33.0203C26.5502 33.0203 26.9418 32.8579 27.2308 32.5688L34.1589 25.62C34.3935 25.3839 34.5252 25.0642 34.5252 24.7309C34.5252 24.3976 34.3935 24.0779 34.1589 23.8418L23.4825 13.1207C23.3659 13.0037 23.2274 12.9109 23.075 12.8476C22.9227 12.7843 22.7593 12.7517 22.5944 12.7517C22.4295 12.7517 22.2661 12.7843 22.1137 12.8476C21.9614 12.9109 21.8229 13.0037 21.7063 13.1207L11.0202 23.8386C10.7843 24.0759 10.6518 24.3974 10.6518 24.7325C10.6518 25.0677 10.7843 25.3892 11.0202 25.6265L25.0531 39.7108C25.1958 39.8547 25.3655 39.969 25.5523 40.0469C25.7392 40.1249 25.9396 40.165 26.142 40.165C26.3443 40.165 26.5447 40.1249 26.7316 40.0469C26.9185 39.969 27.0881 39.8547 27.2308 39.7108L41.2798 25.62C41.3967 25.5036 41.4895 25.365 41.5528 25.2124C41.6161 25.0598 41.6487 24.8962 41.6487 24.7309C41.6487 24.5656 41.6161 24.402 41.5528 24.2494C41.4895 24.0968 41.3967 23.9583 41.2798 23.8418L23.4825 5.9755C23.2465 5.74002 22.9272 5.60783 22.5944 5.60783C22.2615 5.60783 21.9422 5.74002 21.7063 5.9755L3.89938 23.8386C3.66343 24.0759 3.53093 24.3974 3.53093 24.7325C3.53093 25.0677 3.66343 25.3892 3.89938 25.6265L23.9996 45.7864C24.0491 45.8358 24.0884 45.8946 24.1153 45.9593C24.1421 46.0239 24.1559 46.0933 24.1559 46.1634C24.1559 46.2334 24.1421 46.3028 24.1153 46.3675C24.0884 46.4321 24.0491 46.4909 23.9996 46.5403L23.0553 47.4874C22.9954 47.5492 22.9238 47.5984 22.8446 47.632C22.7654 47.6656 22.6804 47.6829 22.5944 47.6829C22.5084 47.6829 22.4233 47.6656 22.3442 47.632C22.265 47.5984 22.1934 47.5492 22.1335 47.4874L0.812724 26.0936C0.632095 25.9139 0.488726 25.7001 0.390887 25.4646C0.293048 25.229 0.242676 24.9764 0.242676 24.7212C0.242676 24.4661 0.293048 24.2134 0.390887 23.9779C0.488726 23.7424 0.632095 23.5286 0.812724 23.3489L21.1153 2.98919C21.3093 2.7939 21.5398 2.63894 21.7936 2.53321C22.0474 2.42748 22.3195 2.37305 22.5944 2.37305C22.8692 2.37305 23.1414 2.42748 23.3952 2.53321C23.649 2.63894 23.8795 2.7939 24.0735 2.98919L44.2636 23.2394C44.459 23.4345 44.6141 23.6665 44.7199 23.9219C44.8257 24.1773 44.8801 24.4511 44.8801 24.7277C44.8801 25.0043 44.8257 25.2781 44.7199 25.5335C44.6141 25.7889 44.459 26.0209 44.2636 26.216Z" fill="url(#paint14_linear_701_10407)"/>
<path d="M21.1443 7.66697L20.094 8.72361V11.2235L21.1989 10.1153C21.416 9.89686 21.6808 9.73218 21.9724 9.63432C22.264 9.53647 22.5743 9.50812 22.8787 9.55153V7.0871C22.5646 7.04325 22.2447 7.07277 21.9438 7.17335C21.643 7.27393 21.3693 7.44286 21.1443 7.66697Z" fill="url(#paint15_linear_701_10407)"/>
<path d="M22.8723 14.2454C22.5535 14.2022 22.229 14.2336 21.9242 14.3369C21.6195 14.4403 21.3427 14.6129 21.1154 14.8413L20.094 15.8658V18.3624L21.1154 17.3412C21.3434 17.1142 21.6205 16.9429 21.9252 16.8406C22.2299 16.7384 22.554 16.708 22.8723 16.7517V14.2454Z" fill="url(#paint16_linear_701_10407)"/>
</g>
<defs>
<linearGradient id="paint0_linear_701_10407" x1="9.25054" y1="34.0154" x2="28.0576" y2="30.2069" gradientUnits="userSpaceOnUse">
<stop stop-color="#3B75B9"/>
<stop offset="0.13" stop-color="#337BBE"/>
<stop offset="0.33" stop-color="#1C8BCB"/>
<stop offset="0.51" stop-color="#029EDA"/>
<stop offset="0.65" stop-color="#059FDB"/>
<stop offset="0.74" stop-color="#0DA3DD"/>
<stop offset="0.82" stop-color="#1CA8E0"/>
<stop offset="0.89" stop-color="#30B1E5"/>
<stop offset="0.95" stop-color="#4BBCEB"/>
<stop offset="1" stop-color="#69C8F2"/>
</linearGradient>
<linearGradient id="paint1_linear_701_10407" x1="26.402" y1="17.2798" x2="39.6652" y2="7.74619" gradientUnits="userSpaceOnUse">
<stop stop-color="#3B75B9"/>
<stop offset="0.59" stop-color="#029EDA"/>
<stop offset="1" stop-color="#69C8F2"/>
</linearGradient>
<linearGradient id="paint2_linear_701_10407" x1="16.6249" y1="30.2075" x2="27.4903" y2="26.7694" gradientUnits="userSpaceOnUse">
<stop stop-color="#3B75B9"/>
<stop offset="0.13" stop-color="#3778BC"/>
<stop offset="0.27" stop-color="#2982C3"/>
<stop offset="0.42" stop-color="#1491D0"/>
<stop offset="0.51" stop-color="#029EDA"/>
<stop offset="0.6" stop-color="#06A0DB"/>
<stop offset="0.7" stop-color="#13A5DE"/>
<stop offset="0.8" stop-color="#28ADE3"/>
<stop offset="0.9" stop-color="#45B9EA"/>
<stop offset="1" stop-color="#69C8F2"/>
</linearGradient>
<linearGradient id="paint3_linear_701_10407" x1="-1.39385" y1="37.5336" x2="32.7484" y2="31.6145" gradientUnits="userSpaceOnUse">
<stop offset="0.1" stop-color="#3B75B9"/>
<stop offset="0.22" stop-color="#2E7EC1"/>
<stop offset="0.45" stop-color="#0C97D4"/>
<stop offset="0.51" stop-color="#029EDA"/>
</linearGradient>
<linearGradient id="paint4_linear_701_10407" x1="28.705" y1="25.9327" x2="21.3978" y2="25.8462" gradientUnits="userSpaceOnUse">
<stop stop-color="#3B75B9"/>
<stop offset="0.13" stop-color="#337BBE"/>
<stop offset="0.33" stop-color="#1C8BCB"/>
<stop offset="0.51" stop-color="#029EDA"/>
<stop offset="1" stop-color="#69C8F2"/>
</linearGradient>
<linearGradient id="paint5_linear_701_10407" x1="20.9739" y1="22.3148" x2="35.6698" y2="11.6128" gradientUnits="userSpaceOnUse">
<stop offset="0.04" stop-color="#3B75B9"/>
<stop offset="0.22" stop-color="#3877BB"/>
<stop offset="0.34" stop-color="#2F7EC0"/>
<stop offset="0.46" stop-color="#1F89C9"/>
<stop offset="0.56" stop-color="#0999D6"/>
<stop offset="0.59" stop-color="#029EDA"/>
<stop offset="1" stop-color="#69C8F2"/>
</linearGradient>
<linearGradient id="paint6_linear_701_10407" x1="19.9846" y1="23.9642" x2="31.3331" y2="15.7396" gradientUnits="userSpaceOnUse">
<stop stop-color="#3B75B9"/>
<stop offset="0.61" stop-color="#029EDA"/>
<stop offset="1" stop-color="#69C8F2"/>
</linearGradient>
<linearGradient id="paint7_linear_701_10407" x1="45.648" y1="30.0918" x2="21.2943" y2="34.2524" gradientUnits="userSpaceOnUse">
<stop stop-color="#3B75B9"/>
<stop offset="0.14" stop-color="#307DC0"/>
<stop offset="0.4" stop-color="#1293D1"/>
<stop offset="0.52" stop-color="#029EDA"/>
<stop offset="0.73" stop-color="#049FDA"/>
<stop offset="0.81" stop-color="#0BA2DC"/>
<stop offset="0.87" stop-color="#16A6DF"/>
<stop offset="0.91" stop-color="#27ADE3"/>
<stop offset="0.95" stop-color="#3DB6E8"/>
<stop offset="0.98" stop-color="#58C1EE"/>
<stop offset="1" stop-color="#69C8F2"/>
</linearGradient>
<linearGradient id="paint8_linear_701_10407" x1="37.6824" y1="29.3253" x2="23.6262" y2="27.9002" gradientUnits="userSpaceOnUse">
<stop stop-color="#3B75B9"/>
<stop offset="0.15" stop-color="#3778BB"/>
<stop offset="0.3" stop-color="#2B80C2"/>
<stop offset="0.45" stop-color="#188ECD"/>
<stop offset="0.57" stop-color="#029EDA"/>
<stop offset="0.67" stop-color="#059FDB"/>
<stop offset="0.76" stop-color="#0FA3DD"/>
<stop offset="0.83" stop-color="#20AAE1"/>
<stop offset="0.9" stop-color="#38B4E6"/>
<stop offset="0.97" stop-color="#56C0EE"/>
<stop offset="1" stop-color="#69C8F2"/>
</linearGradient>
<linearGradient id="paint9_linear_701_10407" x1="21.4364" y1="25.7463" x2="13.4698" y2="11.1536" gradientUnits="userSpaceOnUse">
<stop stop-color="#3B75B9"/>
<stop offset="0.14" stop-color="#3778BB"/>
<stop offset="0.27" stop-color="#2B80C2"/>
<stop offset="0.4" stop-color="#188FCE"/>
<stop offset="0.51" stop-color="#029EDA"/>
<stop offset="1" stop-color="#69C8F2"/>
</linearGradient>
<linearGradient id="paint10_linear_701_10407" x1="16.808" y1="18.8877" x2="11.3654" y2="11.497" gradientUnits="userSpaceOnUse">
<stop stop-color="#3B75B9"/>
<stop offset="0.58" stop-color="#029EDA"/>
<stop offset="1" stop-color="#69C8F2"/>
</linearGradient>
<linearGradient id="paint11_linear_701_10407" x1="16.9108" y1="18.7358" x2="1.97636" y2="2.80157" gradientUnits="userSpaceOnUse">
<stop stop-color="#3B75B9"/>
<stop offset="0.12" stop-color="#3579BC"/>
<stop offset="0.27" stop-color="#2585C6"/>
<stop offset="0.44" stop-color="#0B98D5"/>
<stop offset="0.49" stop-color="#029EDA"/>
<stop offset="1" stop-color="#69C8F2"/>
</linearGradient>
<linearGradient id="paint12_linear_701_10407" x1="20.094" y1="9.1424" x2="22.8787" y2="9.1424" gradientUnits="userSpaceOnUse">
<stop stop-color="#0097C4" stop-opacity="0"/>
<stop offset="0.5" stop-color="#009AC7"/>
<stop offset="0.99" stop-color="#009AC7" stop-opacity="0"/>
</linearGradient>
<linearGradient id="paint13_linear_701_10407" x1="20.094" y1="2.07147" x2="22.8787" y2="2.07147" gradientUnits="userSpaceOnUse">
<stop stop-color="#2290CF" stop-opacity="0"/>
<stop offset="0.5" stop-color="#2290CF"/>
<stop offset="0.99" stop-color="#2191D0" stop-opacity="0"/>
</linearGradient>
<linearGradient id="paint14_linear_701_10407" x1="-2.69149" y1="30.2461" x2="50.3823" y2="19.3296" gradientUnits="userSpaceOnUse">
<stop stop-color="#029EDA"/>
<stop offset="1" stop-color="#69C8F2"/>
</linearGradient>
<linearGradient id="paint15_linear_701_10407" x1="20.094" y1="9.1424" x2="22.8787" y2="9.1424" gradientUnits="userSpaceOnUse">
<stop stop-color="#1597D4" stop-opacity="0"/>
<stop offset="0.5" stop-color="#1E94D2"/>
<stop offset="0.99" stop-color="#1E92D1" stop-opacity="0"/>
</linearGradient>
<linearGradient id="paint16_linear_701_10407" x1="20.094" y1="16.2974" x2="22.8723" y2="16.2974" gradientUnits="userSpaceOnUse">
<stop stop-color="#1597D4" stop-opacity="0"/>
<stop offset="0.5" stop-color="#1E94D2"/>
<stop offset="0.99" stop-color="#1E92D1" stop-opacity="0"/>
</linearGradient>
<clipPath id="clip0_701_10407">
<rect width="170.553" height="48" fill="white"/>
</clipPath>
</defs>
</svg>
