<svg width="40" height="40" viewBox="0 0 40 40" fill="none" xmlns="http://www.w3.org/2000/svg">
<path d="M6.66663 19.543C6.66663 18.9101 7.13688 18.3872 7.74701 18.3044L7.91663 18.293H32.9166C33.607 18.293 34.1666 18.8526 34.1666 19.543C34.1666 20.1758 33.6964 20.6988 33.0862 20.7816L32.9166 20.793H7.91663C7.22627 20.793 6.66663 20.2333 6.66663 19.543Z" fill="#1B242D"/>
<path d="M21.9516 10.3881C21.4624 9.901 21.4607 9.10954 21.9478 8.62034C22.3907 8.17561 23.085 8.13377 23.5751 8.49581L23.7156 8.61653L33.7989 18.6565C34.245 19.1007 34.2856 19.7975 33.9206 20.2877L33.799 20.428L23.7157 30.4697C23.2265 30.9568 22.4351 30.9552 21.9479 30.466C21.505 30.0213 21.4661 29.3268 21.8302 28.8382L21.9516 28.6983L31.145 19.5418L21.9516 10.3881Z" fill="#1B242D"/>
</svg>
