<svg width="40" height="40" viewBox="0 0 40 40" fill="none" xmlns="http://www.w3.org/2000/svg">
<path d="M10.694 30.9325C10.2465 30.485 10.2092 29.7827 10.5821 29.2928L10.694 29.1648L28.3717 11.4871C28.8598 10.9989 29.6513 10.9989 30.1394 11.4871C30.5869 11.9346 30.6242 12.6369 30.2513 13.1268L30.1394 13.2549L12.4618 30.9325C11.9736 31.4207 11.1822 31.4207 10.694 30.9325Z" fill="#F3F5F7"/>
<path d="M15.0287 13.6505C14.3383 13.652 13.7775 13.0936 13.776 12.4032C13.7747 11.7756 14.2361 11.255 14.8386 11.1645L15.0233 11.1505L29.2527 11.1199C29.8821 11.1185 30.4036 11.5826 30.4921 12.1872L30.5053 12.3725L30.4759 26.603C30.4745 27.2933 29.9137 27.8518 29.2233 27.8504C28.5957 27.8491 28.0771 27.3855 27.9891 26.7826L27.9759 26.5978L28.002 13.6225L15.0287 13.6505Z" fill="#F3F5F7"/>
</svg>
