<svg width="40" height="40" viewBox="0 0 40 40" fill="none" xmlns="http://www.w3.org/2000/svg">
<path d="M33.3333 20.457C33.3333 21.0899 32.863 21.6128 32.2529 21.6956L32.0833 21.707L7.08325 21.707C6.39289 21.707 5.83325 21.1474 5.83325 20.457C5.83325 19.8242 6.30351 19.3012 6.91363 19.2184L7.08325 19.207L32.0833 19.207C32.7736 19.207 33.3333 19.7667 33.3333 20.457Z" fill="#9AA4AD"/>
<path d="M18.0482 29.6119C18.5374 30.099 18.5391 30.8905 18.052 31.3797C17.6092 31.8244 16.9149 31.8662 16.4247 31.5042L16.2843 31.3835L6.20095 21.3435C5.75489 20.8993 5.71431 20.2025 6.07923 19.7123L6.20088 19.572L16.2842 9.5303C16.7734 9.04316 17.5648 9.0448 18.052 9.53396C18.4948 9.97866 18.5337 10.6732 18.1696 11.1618L18.0483 11.3017L8.85493 20.4582L18.0482 29.6119Z" fill="#9AA4AD"/>
</svg>
