<svg width="24" height="24" viewBox="0 0 24 24" fill="none" xmlns="http://www.w3.org/2000/svg">
<path d="M0.354623 9.11686C1.94705 2.68182 8.45048 -1.23753 14.881 0.354518C21.3175 1.94657 25.2378 8.44844 23.6454 14.8835C22.053 21.3124 15.5495 25.2379 9.11298 23.6458C2.68248 22.0538 -1.2378 15.5458 0.354623 9.11686Z" fill="#4B7CBD"/>
<path d="M24 12C24 13.5759 23.6896 15.1363 23.0866 16.5922C22.4835 18.0481 21.5996 19.371 20.4853 20.4853C19.371 21.5996 18.0481 22.4835 16.5922 23.0866C15.1363 23.6896 13.5759 24 12 24C10.4241 24 8.86371 23.6896 7.4078 23.0866C5.95189 22.4835 4.62902 21.5996 3.51472 20.4853C2.40042 19.371 1.5165 18.0481 0.913445 16.5922C0.310389 15.1363 -1.37766e-07 13.5759 0 12L12 12H24Z" fill="#F6CF45"/>
</svg>
